<svg width="900" height="900" viewBox="0 0 900 900" fill="none" xmlns="http://www.w3.org/2000/svg">
<circle cx="415" cy="415" r="415" transform="translate(35 35)" fill="#1A2F6F"/>
<mask id="mask0" mask-type="alpha" maskUnits="userSpaceOnUse" x="183" y="183" width="534" height="534">
<rect width="533.571" height="533.571" transform="translate(183.215 183.214)" fill="#0667D0"/>
</mask>
<g mask="url(#mask0)">
<path fill-rule="evenodd" clip-rule="evenodd" d="M224.205 77.4169L224.205 130.623L429.278 130.616L434.116 135.488L383.734 198.823L378.896 203.695L237.89 203.706L237.878 203.695L224.209 203.695L224.21 203.74L137.116 203.739L137.115 203.699L4.83836 203.706L0 198.834L50.3815 135.498L55.2206 130.627L123.875 130.615L123.888 130.626L137.112 130.64L137.111 4.83857L141.95 0L528.695 0.000209764L533.579 4.83828L483.115 67.7398L478.412 72.5782L229.044 72.5778L224.205 77.4169ZM137.115 236.212L137.115 333.838L141.954 338.676L459.082 338.676L464.049 333.838L515.242 270.936L510.467 266.098L229.048 266.098L224.208 261.259L224.209 236.213L137.115 236.212Z" transform="translate(109.855 470.024) rotate(-30)" fill="white"/>
</g>
</svg>
